<svg xmlns="http://www.w3.org/2000/svg" enable-background="new 0 0 70 70" viewBox="0 0 70 70"><path fill="#2B79C2" d="M2,17.7950134v49.4099731c0,0.5499878,0.4500122,1,1,1h64c0.5499878,0,1-0.4500122,1-1V17.7950134H2z
		 M19.2700195,60.605011c0,0.5499878-0.4500122,1-1,1h-9.5c-0.5500488,0-1-0.4500122-1-1v-9.5c0-0.5499878,0.4499512-1,1-1h9.5
		c0.5499878,0,1,0.4500122,1,1V60.605011z M19.2700195,45.5450134c0,0.5499878-0.4500122,1-1,1h-9.5c-0.5500488,0-1-0.4500122-1-1
		v-9.5c0-0.5499878,0.4499512-1,1-1h9.5c0.5499878,0,1,0.4500122,1,1V45.5450134z M19.2700195,30.4850159
		c0,0.5499878-0.4500122,1-1,1h-9.5c-0.5500488,0-1-0.4500122-1-1v-9.5c0-0.5499878,0.4499512-1,1-1h9.5
		c0.5499878,0,1,0.4500122,1,1V30.4850159z M46.2299805,60.4150085h-21.75c-0.5499878,0-1-0.4400024-1-1
		c0-0.5499878,0.4500122-1,1-1h21.75c0.5500488,0,1,0.4500122,1,1
		C47.2299805,59.9750061,46.7800293,60.4150085,46.2299805,60.4150085z M61.2299805,53.2950134h-36.75c-0.5499878,0-1-0.4500122-1-1
		s0.4500122-1,1-1h36.75c0.5500488,0,1,0.4500122,1,1S61.7800293,53.2950134,61.2299805,53.2950134z M23.4799805,44.355011
		c0-0.5499878,0.4500122-1,1-1h21.75c0.5500488,0,1,0.4500122,1,1s-0.4499512,1-1,1h-21.75
		C23.9299927,45.355011,23.4799805,44.9049988,23.4799805,44.355011z M61.2299805,38.2350159h-36.75c-0.5499878,0-1-0.4500122-1-1
		s0.4500122-1,1-1h36.75c0.5500488,0,1,0.4500122,1,1S61.7800293,38.2350159,61.2299805,38.2350159z M23.4799805,29.2950134
		c0-0.5499878,0.4500122-1,1-1h21.75c0.5500488,0,1,0.4500122,1,1s-0.4499512,1-1,1h-21.75
		C23.9299927,30.2950134,23.4799805,29.8450012,23.4799805,29.2950134z M61.2299805,23.1750183h-36.75c-0.5499878,0-1-0.4500122-1-1
		c0-0.5599976,0.4500122-1,1-1h36.75c0.5500488,0,1,0.4400024,1,1
		C62.2299805,22.7250061,61.7800293,23.1750183,61.2299805,23.1750183z"/><path fill="#3B4652" d="M67,1.7950134H3c-0.5499878,0-1,0.4500122-1,1v13h66v-13C68,2.2450256,67.5499878,1.7950134,67,1.7950134z
		 M38.25,9.7950134H6.9199829c-0.5599976,0-1-0.4500122-1-1s0.4400024-1,1-1H38.25c0.5499878,0,1,0.4500122,1,1
		S38.7999878,9.7950134,38.25,9.7950134z M45.3699951,9.7950134h-1.2399902c-0.5599976,0-1-0.4500122-1-1s0.4400024-1,1-1h1.2399902
		c0.5599976,0,1,0.4500122,1,1S45.9299927,9.7950134,45.3699951,9.7950134z M52.8699951,9.7950134h-1.2399902
		c-0.5599976,0-1-0.4500122-1-1s0.4400024-1,1-1h1.2399902c0.5599976,0,1,0.4500122,1,1S53.4299927,9.7950134,52.8699951,9.7950134z
		 M60.3699951,9.7950134h-1.2399902c-0.5599976,0-1-0.4500122-1-1s0.4400024-1,1-1h1.2399902c0.5599976,0,1,0.4500122,1,1
		S60.9299927,9.7950134,60.3699951,9.7950134z"/></svg>