<svg xmlns="http://www.w3.org/2000/svg" width="32" height="32" viewBox="0 0 32 32"><g transform="translate(-141.5 -2.484)"><path fill="#373449" d="m 142.49998,5.4842 30,0 c 0.553,0 1,0.485 1,1.083 l 0,23.833 c 0,0.599 -0.447,1.084 -1,1.084 l -30,0 c -0.553,0 -1,-0.485 -1,-1.084 l 0,-23.833 c 0,-0.597 0.447,-1.083 1,-1.083 z"/><path fill="#f7f7f8" d="m 143.43798,9.4842 28.125,0 c 0.518,0 0.938,0.392 0.938,0.875 l 0,19.25 c 0,0.483 -0.42,0.875 -0.938,0.875 l -28.125,0 c -0.518,0 -0.938,-0.392 -0.938,-0.875 l 0,-19.25 c 0,-0.483 0.42,-0.875 0.938,-0.875 z"/><path fill="#ef4c45" d="m 171.49998,7.4842 c 0,0.552 -0.447,1 -1,1 -0.553,0 -1,-0.448 -1,-1 0,-0.552 0.447,-1 1,-1 0.553,0 1,0.448 1,1 z"/><path fill="#eff0f2" d="M168.49998 7.4842c0 .552-.447 1-1 1-.553 0-1-.448-1-1 0-.552.447-1 1-1 .553 0 1 .448 1 1zM165.49998 7.4842c0 .552-.447 1-1 1-.553 0-1-.448-1-1 0-.552.447-1 1-1 .553 0 1 .448 1 1z"/><rect width="14" height="17" x="150.5" y="11.484" fill="#23bedb"/><rect width="12" height="2" x="151.5" y="19.484" fill="#239fdb"/><rect width="12" height="2" x="151.5" y="22.484" fill="#239fdb"/><rect width="5" height="2" x="158.5" y="25.484" fill="#1d67b1"/><path fill="#239fdb" d="m 160.49998,15.4842 c 0,1.656 -1.344,3 -3,3 -1.656,0 -3,-1.344 -3,-3 0,-1.657 1.344,-3 3,-3 1.656,0 3,1.343 3,3 z"/><path fill="#1d67b1" d="m 159.49998,15.4842 c 0,1.104 -0.896,2 -2,2 -1.104,0 -2,-0.896 -2,-2 0,-1.104 0.896,-2 2,-2 1.104,0 2,0.896 2,2 z"/></g></svg>